<svg width="12" height="17" viewBox="0 0 12 17" fill="none" xmlns="http://www.w3.org/2000/svg">
<path fill-rule="evenodd" clip-rule="evenodd" d="M2.94531 4.667C2.94531 3.17123 4.15787 1.95866 5.65364 1.95866C7.14942 1.95866 8.36198 3.17123 8.36198 4.667C8.36198 6.16277 7.14942 7.37533 5.65364 7.37533C4.15787 7.37533 2.94531 6.16277 2.94531 4.667ZM5.65364 0.708664C3.46752 0.708664 1.69531 2.48087 1.69531 4.667C1.69531 6.85312 3.46752 8.62533 5.65364 8.62533C7.83977 8.62533 9.61198 6.85312 9.61198 4.667C9.61198 2.48087 7.83977 0.708664 5.65364 0.708664ZM2.0719 11.8323C2.57981 11.3244 3.26868 11.0391 3.98698 11.0391H7.32031C8.0386 11.0391 8.72748 11.3244 9.23539 11.8323C9.7433 12.3402 10.0286 13.0291 10.0286 13.7474V15.4141C10.0286 15.7592 10.3085 16.0391 10.6536 16.0391C10.9988 16.0391 11.2786 15.7592 11.2786 15.4141V13.7474C11.2786 12.6976 10.8616 11.6908 10.1193 10.9484C9.37694 10.2061 8.37013 9.78907 7.32031 9.78907H3.98698C2.93716 9.78907 1.93034 10.2061 1.18801 10.9484C0.445682 11.6908 0.0286446 12.6976 0.0286446 13.7474V15.4141C0.0286446 15.7592 0.308467 16.0391 0.653645 16.0391C0.998823 16.0391 1.27864 15.7592 1.27864 15.4141V13.7474C1.27864 13.0291 1.56399 12.3402 2.0719 11.8323Z" fill="#5F6980"/>
</svg>
